<svg xmlns="http://www.w3.org/2000/svg" viewBox="0 0 800 600" role="img" aria-labelledby="t"><title id="t">Lokasyon: şehir merkezinde ulaşımı kolay ofis binası</title>
<defs><pattern id="g" width="40" height="40" patternUnits="userSpaceOnUse"><path d="M40 0H0V40" fill="none" stroke="#E3DED2" stroke-width="1"/></pattern></defs>
<rect width="800" height="600" fill="#F5F1E8"/><rect width="800" height="600" fill="url(#g)" opacity=".55"/><circle cx="600" cy="150" r="120" fill="#9ECBB4" opacity=".3"/>

<rect x="110" y="300" width="130" height="200" rx="10" fill="#EFEAE0" stroke="#1E1C18" stroke-width="3"/><rect x="270" y="220" width="170" height="280" rx="12" fill="#FFFDF8" stroke="#1E1C18" stroke-width="3"/><rect x="470" y="330" width="120" height="170" rx="10" fill="#EFEAE0" stroke="#1E1C18" stroke-width="3"/><rect x="620" y="280" width="80" height="220" rx="10" fill="#FFFDF8" stroke="#1E1C18" stroke-width="3"/>
<g fill="#9ECBB4"><rect x="295" y="250" width="34" height="34" rx="5"/><rect x="345" y="250" width="34" height="34" rx="5"/><rect x="395" y="250" width="30" height="34" rx="5"/><rect x="295" y="304" width="34" height="34" rx="5"/><rect x="345" y="304" width="34" height="34" rx="5" fill="#1F5B45"/><rect x="395" y="304" width="30" height="34" rx="5"/><rect x="295" y="358" width="34" height="34" rx="5" fill="#1F5B45"/><rect x="345" y="358" width="34" height="34" rx="5"/><rect x="395" y="358" width="30" height="34" rx="5"/><rect x="130" y="330" width="30" height="30" rx="4"/><rect x="180" y="330" width="30" height="30" rx="4"/><rect x="130" y="380" width="30" height="30" rx="4"/><rect x="180" y="380" width="30" height="30" rx="4"/><rect x="490" y="360" width="30" height="30" rx="4"/><rect x="540" y="360" width="30" height="30" rx="4"/><rect x="640" y="310" width="40" height="30" rx="4"/><rect x="640" y="360" width="40" height="30" rx="4"/></g>
<line x1="60" y1="500" x2="740" y2="500" stroke="#1E1C18" stroke-width="3"/>
<g transform="translate(355 150)"><path d="M0-90c-44 0-76 32-76 72 0 54 76 122 76 122s76-68 76-122c0-40-32-72-76-72z" fill="#1F5B45" stroke="#1E1C18" stroke-width="3"/><circle cx="0" cy="-20" r="26" fill="#FFFDF8"/><circle cx="0" cy="-20" r="10" fill="#C9A24A"/></g>
<rect x="330" y="440" width="50" height="60" rx="6" fill="#1F5B45"/>
</svg>